<svg width="36" height="43" viewBox="0 0 36 43" fill="none" xmlns="http://www.w3.org/2000/svg">
<path d="M25.852 5.07016C22.2102 1.20537 15.8365 0.0454095 11.0768 2.3779C9.70599 3.04955 8.44417 3.93221 7.48281 5.13661C6.56325 6.28763 5.9409 7.61087 5.56338 9.03151C4.82728 11.801 5.19299 14.8033 6.14637 17.4715C7.19913 20.4186 8.88134 23.0918 10.5102 25.744C12.2434 28.565 13.9897 31.378 15.7314 34.1936C16.1629 34.8922 16.6004 35.5863 17.038 36.2813C17.5628 37.1151 18.8554 37.369 19.647 36.7755C19.7221 36.719 19.7922 36.6589 19.8572 36.5951C20.0412 36.6567 20.251 36.6404 20.4402 36.5022C22.6991 34.858 24.3141 32.3441 25.6356 29.9149C26.9768 27.4491 27.9087 24.7164 28.5307 21.9829C29.1691 19.1754 29.5027 16.2018 29.2911 13.324C29.0644 10.2423 27.9831 7.33163 25.8529 5.0709L25.852 5.07016ZM26.0269 16.2303C26.0217 16.5438 26.0116 16.8568 25.9968 17.1701C25.9926 17.2577 25.9866 17.3446 25.9832 17.4322C25.976 17.604 25.9877 17.3934 25.9901 17.3364C25.9844 17.5066 25.9661 17.6784 25.9515 17.8476C25.8975 18.5032 25.8226 19.1564 25.7283 19.8068C25.5429 21.0851 25.28 22.3512 24.9438 23.5975C24.7751 24.2236 24.5835 24.8424 24.3814 25.4579C24.356 25.5294 24.3314 25.6008 24.306 25.6714C24.2546 25.816 24.2024 25.9606 24.1486 26.1045C24.0344 26.4128 23.9152 26.719 23.7912 27.024C22.8147 29.4291 21.6681 31.7652 20.3017 33.9741C20.2544 34.0511 20.2095 34.1287 20.1638 34.2064C20.1548 34.191 20.1456 34.1748 20.1358 34.1595C18.4709 31.5171 16.7731 28.8946 15.0852 26.2665C13.4825 23.7695 11.7652 21.3142 10.3754 18.6877C10.345 18.6306 10.2189 18.3807 10.2192 18.3847C10.1661 18.2763 10.1122 18.168 10.0606 18.0587C9.90701 17.7355 9.76421 17.4067 9.62998 17.0749C9.36232 16.4114 9.1288 15.7334 8.94225 15.0417C8.90129 14.89 8.86271 14.7381 8.82647 14.5853C8.81269 14.5254 8.79892 14.4655 8.7852 14.4064C8.71295 14.0927 8.78576 14.46 8.80246 14.4933C8.68207 14.2566 8.69147 13.8428 8.66025 13.5791C8.58623 12.966 8.55571 12.3467 8.57321 11.7288C8.57528 11.667 8.5774 11.606 8.57947 11.5442C8.58977 11.2232 8.56623 11.5948 8.57203 11.632C8.54949 11.5039 8.59762 11.3355 8.61239 11.204C8.64707 10.9004 8.69385 10.5984 8.75437 10.2987C8.81425 10.0014 8.88787 9.70637 8.9746 9.41601C8.98498 9.38165 9.02762 9.29459 9.02864 9.25207C9.07718 9.12375 9.12656 8.99617 9.18083 8.86984C9.29142 8.61225 9.41432 8.35941 9.5497 8.1137C9.61776 7.99041 9.69501 7.8729 9.76313 7.75041C9.76313 7.75041 9.76313 7.75041 9.76307 7.74962C9.8067 7.6881 9.85026 7.6258 9.89553 7.56497C10.0694 7.33259 10.2567 7.10967 10.456 6.89873C10.5587 6.79065 10.6691 6.69004 10.7718 6.58275C10.8142 6.53814 10.8223 6.52876 10.8117 6.53671C10.8558 6.5048 10.9008 6.47442 10.9273 6.45335C11.1594 6.26654 11.4004 6.09193 11.6503 5.9303C11.7757 5.84947 11.9028 5.77091 12.0317 5.69622C12.1054 5.65343 12.1809 5.61371 12.2546 5.57092C12.2623 5.56638 12.2669 5.56366 12.273 5.56002C12.8383 5.30507 13.4045 5.07568 14.0031 4.9081C14.148 4.86753 14.2932 4.83015 14.4393 4.79591C14.4778 4.78681 14.5069 4.77997 14.5305 4.77432C14.5392 4.77291 14.5487 4.77145 14.5589 4.76913C14.8699 4.71615 15.1797 4.66886 15.4938 4.63808C16.0278 4.58713 16.5596 4.58358 17.0944 4.60144C17.1354 4.60498 17.1764 4.60852 17.2173 4.61206C17.3702 4.627 17.5223 4.64439 17.6739 4.66502C17.9586 4.70358 18.2425 4.7534 18.5238 4.81301C18.7865 4.86832 19.0466 4.93261 19.3049 5.00584C19.4182 5.03797 19.5309 5.07333 19.6435 5.1079C19.6993 5.12962 19.7596 5.14622 19.8146 5.16721C20.351 5.36754 20.8726 5.60736 21.3729 5.88549C21.6014 6.01206 21.8214 6.18887 22.0575 6.2973C21.984 6.2632 21.9377 6.2416 21.9096 6.22835C21.9617 6.25354 22.0637 6.30647 22.1167 6.34441C22.2554 6.44442 22.3912 6.54704 22.5248 6.65302C22.9376 6.98132 23.3159 7.34326 23.6782 7.72635C23.7088 7.76346 23.7401 7.79971 23.7706 7.83681C23.8545 7.93986 23.9361 8.04387 24.0162 8.15038C24.1994 8.39384 24.3703 8.64536 24.5291 8.90573C24.6031 9.02709 24.6748 9.15021 24.7434 9.27435C24.7663 9.31679 24.7908 9.35912 24.8138 9.40236C24.8177 9.4117 24.8216 9.42263 24.8283 9.43738C24.9618 9.75879 25.1098 10.0712 25.2278 10.3993C25.3378 10.7039 25.4353 11.0134 25.5211 11.3261C25.5703 11.5053 25.6133 11.6857 25.6571 11.8668C25.6695 11.9188 25.6771 12.1185 25.6701 11.9147C25.6615 11.6671 25.6944 12.046 25.7039 12.1014C25.948 13.4681 26.0451 14.8452 26.0239 16.2329L26.0269 16.2303Z" fill="#F8F9FA"/>
<path d="M21.914 6.22753C21.8669 6.20526 21.8784 6.21005 21.914 6.22753V6.22753Z" fill="#F8F9FA"/>
<path d="M18.3959 9.12369C18.1972 9.12558 18.0118 9.193 17.8533 9.30258C17.8119 9.25903 17.7607 9.22337 17.6997 9.1964C16.9739 8.88037 16.2471 8.76782 15.4761 8.99232C14.7465 9.2051 14.0351 9.66568 13.5863 10.2849C12.5825 11.67 12.5297 13.5773 13.451 15.0208C14.3176 16.3793 16.0695 17.2049 17.6676 16.9506C19.4632 16.6649 20.9374 15.3702 21.4304 13.6131C22.0026 11.5727 20.6605 9.10228 18.3967 9.12363L18.3959 9.12369ZM19.051 12.9283C19.0522 12.9234 19.0346 12.9911 19.0254 13.031C19.012 13.0687 18.9895 13.1344 18.9908 13.1303C18.9312 13.2722 18.8624 13.4075 18.7854 13.5402C18.7854 13.5402 18.7855 13.541 18.7847 13.5419C18.7541 13.5833 18.7226 13.6247 18.6903 13.6646C18.616 13.7563 18.5358 13.8428 18.4522 13.9263C18.4518 13.9215 18.3185 14.0366 18.282 14.0631C18.1756 14.1403 18.0639 14.2113 17.9494 14.2754C17.8966 14.2975 17.8439 14.3204 17.791 14.3409C17.6814 14.383 17.5703 14.4172 17.4583 14.4491C17.5137 14.43 17.2627 14.4844 17.2 14.4904C17.0874 14.5014 16.9758 14.5052 16.8632 14.5051C16.8173 14.4995 16.7705 14.4932 16.7245 14.486C16.6113 14.4675 16.5009 14.4416 16.3902 14.4117C16.4436 14.4223 16.199 14.3385 16.1494 14.3148C16.047 14.2667 15.9481 14.2119 15.8506 14.1539C15.8077 14.1233 15.7656 14.0926 15.7242 14.0602C15.6295 13.986 15.5409 13.9057 15.4551 13.8212C15.4881 13.8477 15.325 13.6629 15.2948 13.6202C15.262 13.5728 15.2314 13.5245 15.2001 13.4762C15.201 13.4778 15.1753 13.4299 15.1572 13.3991C15.1429 13.3665 15.1193 13.3137 15.1202 13.3152C15.0995 13.259 15.0781 13.2045 15.059 13.1481C15.0398 13.0918 15.0231 13.0353 15.0063 12.978C14.9896 12.9216 14.9826 12.9012 14.9805 12.895C14.9825 12.9004 14.9889 12.912 14.983 12.8612C14.9683 12.7429 14.9569 12.6251 14.9533 12.5053C14.9523 12.4565 14.9512 12.4069 14.9526 12.358C14.9535 12.3483 14.9558 12.3353 14.9578 12.3184C14.9727 12.2004 14.9933 12.0836 15.0204 11.968C15.0605 11.7994 15.0547 11.8199 15.1261 11.6643C15.3141 11.2572 15.636 10.8919 16.0645 10.6561C16.4437 10.4478 16.8992 10.279 17.341 10.2473C17.3351 10.8251 17.704 11.2342 18.2499 11.3994C18.077 11.3475 18.3292 11.4371 18.3811 11.4591C18.433 11.4811 18.4848 11.5023 18.5353 11.5276C18.5501 11.5346 18.6168 11.574 18.6558 11.5953C18.6778 11.6122 18.7014 11.6297 18.7039 11.632C18.745 11.6707 18.7883 11.7077 18.8302 11.7473C18.831 11.748 18.8319 11.7487 18.8327 11.7495C18.8724 11.8028 18.909 11.8579 18.9487 11.9112C18.9734 11.9455 18.9881 11.9613 18.9966 11.9679C18.9982 11.9798 19.0028 12.0003 19.0132 12.034C19.035 12.1061 19.0621 12.1739 19.0824 12.247C19.0829 12.2541 19.0842 12.2612 19.0856 12.27C19.0942 12.3358 19.098 12.4012 19.1042 12.4673C19.104 12.4649 19.106 12.5272 19.108 12.5671C19.1051 12.6057 19.1013 12.6653 19.1013 12.6653C19.0883 12.7535 19.0703 12.8396 19.0524 12.9266L19.051 12.9283Z" fill="#F8F9FA"/>
<path d="M35.041 32.9636C34.7554 31.9858 33.9437 31.2521 33.0782 30.7777C32.1994 30.2954 31.1611 30.0348 30.1695 29.9272C29.046 29.8056 27.7726 29.7577 26.7292 30.2454C25.7036 30.7256 25.9596 32.2052 27.1348 32.2079C27.8938 32.2101 28.7426 32.0691 29.4417 32.1179C30.1617 32.1677 30.9836 32.3384 31.5453 32.5706C31.7065 32.637 31.8651 32.7116 32.0187 32.7946C32.0868 32.8315 32.1542 32.87 32.2201 32.9102C32.1792 32.8859 32.0798 32.8007 32.2653 32.9407C32.3868 33.0323 32.4998 33.1293 32.6117 33.2328C32.7783 33.3877 32.6716 33.3015 32.6417 33.2619C32.7005 33.3379 32.7538 33.4151 32.8042 33.4964C32.7743 33.4569 32.8476 33.6255 32.8855 33.7214C32.8679 33.721 32.8911 34.0077 32.906 33.9346C32.8753 34.2162 32.7536 34.4858 32.64 34.6427C32.2764 35.1438 31.6273 35.5367 31.1146 35.7888C30.3454 36.1661 29.5483 36.487 28.7386 36.7646C27.1675 37.3021 25.5739 37.6666 23.969 37.9494C20.4294 38.5733 16.8428 38.9138 13.2513 39.0232C11.701 39.0707 10.3251 39.0757 8.85035 38.8208C7.49121 38.5859 6.08166 38.1784 5.0562 37.3123C4.5604 36.8929 4.08994 36.3676 4.1589 35.6861C4.21366 35.1441 4.64488 34.5942 5.09825 34.247C5.75258 33.7464 6.52412 33.4257 7.31308 33.2056C8.22896 32.9502 9.18101 32.9605 10.0976 32.7266C10.4484 32.6372 10.4598 32.0918 10.144 31.9514C9.25619 31.557 8.25811 31.6308 7.31933 31.8101C6.40497 31.9846 5.52248 32.2721 4.70575 32.7232C3.19686 33.5567 2.03503 35.081 2.4609 36.8763C2.87311 38.6133 4.58844 39.7499 6.13554 40.3881C7.83974 41.0914 9.70183 41.2767 11.528 41.3252C15.5387 41.4307 19.5993 41.0154 23.5499 40.3516C25.4881 40.0254 27.426 39.6273 29.2938 39.0041C30.2179 38.6953 31.1238 38.33 31.9967 37.895C32.8581 37.4648 33.7237 36.971 34.3269 36.1961C35.046 35.2729 35.3775 34.1093 35.0426 32.9635L35.041 32.9636Z" fill="#F8F9FA"/>
</svg>
