<svg width="43" height="43" viewBox="0 0 43 43" fill="none" xmlns="http://www.w3.org/2000/svg">
<g clip-path="url(#clip0_2856_1710)">
<path d="M40.9453 18.1953C40.6454 17.4012 40.0709 16.7247 39.5666 16.05C39.1084 15.4377 38.6375 14.8349 38.1556 14.2409C38.1512 14.235 38.1461 14.2291 38.1416 14.224C38.1986 14.1079 38.2386 13.9818 38.2607 13.8481C38.4755 12.5402 38.6837 11.2333 38.858 9.91934C38.9412 9.29047 39.0379 8.66256 39.0854 8.0296C39.1091 7.71351 39.1328 7.39743 39.1557 7.08129C39.1622 6.9889 39.1729 6.89281 39.1837 6.79592C39.3311 6.66777 39.446 6.50133 39.5072 6.30152C39.6872 5.70664 39.4197 4.9316 38.7641 4.74969C37.4482 4.38556 36.081 4.07866 34.7189 3.96261C34.0323 3.90419 33.2999 3.83617 32.6168 3.93406C32.3775 3.96855 32.0393 4.04335 31.7529 4.17859C31.5002 4.23295 31.2584 4.40573 31.1508 4.6407C30.8703 5.25177 30.8729 6.02829 30.7445 6.68521C30.7421 6.69625 30.7397 6.70808 30.7373 6.71912C29.8533 5.9818 28.9444 5.27797 28.0077 4.61941C27.238 4.07817 26.446 3.58099 25.6021 3.16103C25.2293 2.97569 24.8315 2.85023 24.4279 2.75077C24.0699 2.66251 23.7218 2.67338 23.3686 2.71111C23.0459 2.16352 22.3804 2.00893 21.8076 2.2466C16.2906 4.5372 11.0506 7.44662 6.17263 10.8888C5.4991 11.3643 4.85423 11.8763 4.21222 12.3932C3.88144 12.6598 3.58193 12.9598 3.27942 13.2572C2.9648 13.5674 2.7564 13.9265 2.52926 14.302C2.3365 14.6207 2.58989 15.1747 3.01797 15.0389C3.34211 14.9359 3.69314 14.8604 4.00021 14.7154C4.32877 14.5607 4.65576 14.3483 4.96669 14.1595C5.03773 14.1165 5.10803 14.0726 5.17839 14.0279C5.13316 14.2512 5.09106 14.4756 5.05596 14.7028C4.95307 15.3615 4.85348 16.0188 4.77358 16.6808C4.69643 17.3148 4.61933 17.9481 4.54218 18.5822C4.45783 19.2734 4.44486 20.0769 4.76465 20.7115C5.06611 21.3104 5.8591 21.3243 6.24765 20.8152C6.47673 20.5151 6.52593 20.2464 6.63127 19.896C6.74102 19.5283 6.81045 19.2106 6.83598 18.8226C6.87834 18.1597 6.92149 17.4968 6.96384 16.8339C7.00521 16.1965 7.02809 15.5602 7.04711 14.9221C7.06772 14.2496 7.03443 13.5926 7.02364 12.9228C7.0233 12.8819 7.01965 12.8425 7.0151 12.8045C8.17962 12.0376 9.33075 11.2561 10.5221 10.5294C13.0185 9.00565 15.5997 7.61906 18.2491 6.3797C19.7674 5.66951 21.3087 5.00815 22.8683 4.39449C22.9819 4.34961 23.0809 4.2845 23.1658 4.20399C23.2892 4.30387 23.4145 4.40067 23.5507 4.47982C23.8675 4.66365 24.1765 4.85813 24.4907 5.04577C25.1552 5.44359 25.7802 5.89068 26.3852 6.37317C26.9673 6.83807 27.5355 7.31959 28.1072 7.79736C28.3923 8.03499 28.674 8.27559 28.9548 8.51852C29.581 9.06253 30.3526 9.86322 31.2565 9.81277C31.7892 9.7828 32.2646 9.40546 32.5013 8.92739C32.8397 8.24274 32.6287 7.54128 32.6591 6.81989C32.6706 6.54137 32.6883 6.25368 32.6908 5.96573C32.7889 5.98299 32.8839 5.99684 32.9727 6.00945C33.5535 6.09249 34.1314 6.17212 34.7095 6.27177C35.6561 6.4348 36.5689 6.63549 37.4945 6.90431C37.4305 7.15594 37.3657 7.40752 37.3017 7.65916C37.1289 8.33298 35.9355 15.7504 35.9606 15.781C35.9556 15.8071 35.9498 15.8331 35.9454 15.8608C35.8018 16.8736 35.6958 17.8858 35.5966 18.9041C35.4979 19.9145 35.3964 20.943 35.4086 21.9587C35.4162 22.5587 35.8057 23.1006 36.4397 23.1449C37.0737 23.1893 37.5434 22.7107 37.6259 22.1138C37.7643 21.1078 37.7909 20.0748 37.8187 19.0595C37.8267 18.7728 37.8331 18.4867 37.8395 18.2006C38.2438 18.7483 38.6486 19.2784 39.171 19.7391C39.5691 20.0895 40.2838 19.9746 40.6545 19.6524C41.0891 19.2746 41.14 18.7067 40.9469 18.1954L40.9453 18.1953Z" fill="#F8F9FA"/>
<path d="M21.2125 33.9124C21.2211 33.7898 21.198 33.6737 21.144 33.5643C21.1008 33.3924 21.0178 33.2409 20.8941 33.109C20.8075 33.0317 20.7208 32.9552 20.635 32.878C20.635 32.878 20.635 32.878 20.6342 32.878C20.6342 32.878 20.6334 32.8779 20.6326 32.8778C20.5385 32.816 20.4388 32.765 20.3319 32.7256C20.3296 32.7246 20.3265 32.7228 20.3242 32.7218C20.2659 32.6961 20.3439 32.7256 20.1435 32.6836C19.9664 32.6304 19.7858 32.6257 19.6019 32.6697C19.4912 32.7076 19.3797 32.7454 19.269 32.7833C19.1724 32.8478 19.076 32.9115 18.9802 32.976C18.9029 33.0626 18.8264 33.1493 18.7492 33.2352L18.5904 33.549C18.5212 33.725 18.5007 33.9045 18.5287 34.0873C18.5201 34.21 18.5432 34.326 18.5972 34.4355C18.6211 34.5524 18.6722 34.656 18.7508 34.7463C18.8042 34.8525 18.8789 34.9394 18.9767 35.0062C19.099 35.1348 19.247 35.2268 19.4209 35.2806C19.5401 35.3049 19.6584 35.33 19.7775 35.3544C19.8989 35.3468 20.0195 35.3385 20.1409 35.331C20.2516 35.2931 20.3631 35.2553 20.4738 35.2174C20.5703 35.1529 20.6668 35.0892 20.7626 35.0247C20.9034 34.9113 21.0068 34.772 21.0734 34.6086C21.1421 34.507 21.1812 34.3953 21.1897 34.2734C21.2308 34.1554 21.2391 34.0359 21.2149 33.9134L21.2125 33.9124Z" fill="#F8F9FA"/>
<path d="M31.2413 25.9619C31.2065 25.9338 31.2018 25.9319 31.3244 26.0325C31.3244 26.0325 31.3229 26.0316 31.3229 26.0308C31.2957 26.0081 31.2685 25.9854 31.2413 25.9619Z" fill="#F8F9FA"/>
<path d="M36.7052 29.814C36.3255 28.0555 35.5546 26.3993 34.3911 25.0222C33.3629 23.8058 32.0639 22.8217 30.6827 22.0408C29.5216 21.3842 28.3092 20.8336 27.0778 20.3257C27.8164 18.6782 28.3069 16.9525 28.0507 15.0986C27.7487 12.9061 26.238 11.0117 24.0563 10.4726C21.9234 9.94568 19.4206 10.2789 17.4675 11.278C15.5003 12.2842 13.9079 14.2369 13.8003 16.508C13.7259 18.0763 14.327 19.4725 15.1678 20.7366C12.6098 20.8867 10.0721 21.5584 8.06411 23.2052C5.26311 25.5024 4.12842 29.2192 4.08532 32.7313C4.07115 33.9068 4.19317 35.0919 4.35032 36.2554C4.5097 37.4326 4.74224 38.571 5.1977 39.6689C5.44844 40.2723 6.35219 40.0298 6.40283 39.4314C6.56178 37.5361 6.15153 35.6314 6.14931 33.7288C6.1465 32.0407 6.27386 30.4369 6.79236 28.882C7.25316 27.5 7.95809 26.2207 9.0246 25.2645C10.08 24.3178 11.3516 23.7592 12.7083 23.4603C13.1334 23.3668 13.5642 23.2961 13.9968 23.2447C14.205 23.22 14.4128 23.201 14.6213 23.1843C14.6317 23.1834 14.6679 23.1812 14.6984 23.1801C14.8156 23.1747 14.9328 23.1693 15.05 23.1655C15.9274 23.1396 16.8047 23.1825 17.6783 23.2684C18.8054 23.3801 19.3836 22.0015 18.7182 21.1818C18.45 20.8509 18.1836 20.5185 17.9289 20.1766C17.8134 20.0212 17.6995 19.8644 17.5889 19.7054C17.573 19.6819 17.5165 19.5963 17.4926 19.5602C17.4343 19.4681 17.3759 19.376 17.32 19.2824C17.1265 18.9584 16.9499 18.6235 16.8029 18.2754C16.761 18.1765 16.7208 18.076 16.6839 17.9742C16.6796 17.9563 16.6739 17.9343 16.6663 17.9065C16.6102 17.6897 16.5572 17.4739 16.5223 17.2522C16.5106 17.1801 16.502 17.1075 16.4942 17.0357C16.4924 17.0044 16.4897 16.9634 16.4911 16.9435C16.5017 16.7353 16.5087 16.5309 16.5352 16.3239C16.5359 16.3135 16.5373 16.3056 16.5387 16.2969C16.5682 16.1845 16.5992 16.073 16.6366 15.962C16.6628 15.8846 16.6914 15.8074 16.7223 15.7311C16.7426 15.6813 16.8216 15.5131 16.8139 15.5206C16.8992 15.3649 16.9953 15.2147 17.0975 15.0698C17.1455 15.0019 17.195 14.935 17.246 14.8697C17.2583 14.8538 17.4136 14.6813 17.4088 14.681C17.5019 14.5859 17.5973 14.4925 17.6979 14.4043C17.7917 14.322 17.8877 14.2423 17.9867 14.166C18.0146 14.1447 18.1719 14.0357 18.1839 14.0245C18.4952 13.8302 18.8246 13.6627 19.1626 13.5223C19.2731 13.4764 19.385 13.4322 19.4975 13.392C19.5171 13.3862 19.5399 13.3798 19.5693 13.3714C19.803 13.3037 20.0362 13.2416 20.2743 13.1902C20.6855 13.1013 21.0992 13.0446 21.5176 13.0019C21.5442 12.9989 21.5644 12.9971 21.5829 12.9952C21.701 12.9891 21.8188 12.9861 21.9366 12.9847C22.1568 12.9833 22.3772 12.9899 22.596 13.0084C22.7798 13.0237 22.9665 13.0439 23.1491 13.0767C23.1806 13.0845 23.2419 13.1 23.2638 13.1072C23.3866 13.1478 23.5117 13.1789 23.6335 13.2226C23.7022 13.2475 23.9998 13.3875 23.9578 13.3582C24.0501 13.4111 24.1415 13.4671 24.2284 13.5284C24.2688 13.5568 24.443 13.6986 24.4224 13.6732C24.5198 13.768 24.6103 13.8696 24.6966 13.9749C24.7423 14.0309 24.7839 14.0882 24.8263 14.1464C24.84 14.1682 24.8543 14.1916 24.8613 14.2057C24.9484 14.3807 25.0381 14.551 25.1177 14.7294C25.1287 14.7542 25.1378 14.7733 25.1447 14.789C25.1787 14.8978 25.2094 15.008 25.2361 15.1187C25.2868 15.3319 25.3199 15.5455 25.3496 15.7621C25.3523 15.7799 25.3545 15.7945 25.356 15.8082C25.3597 15.9261 25.361 16.0446 25.3584 16.1629C25.3523 16.3986 25.331 16.634 25.2979 16.8678C25.2869 16.9439 25.2736 17.0198 25.2603 17.0957C25.2562 17.0978 25.1891 17.3924 25.1784 17.4317C25.0371 17.9524 24.8465 18.4577 24.6288 18.9507C24.5261 19.1829 24.418 19.4122 24.3046 19.6388C24.287 19.672 24.25 19.7438 24.2444 19.7546C24.1515 19.9282 24.0601 20.1019 23.9656 20.2746C23.5174 21.0988 23.7538 22.0445 24.666 22.4133C25.3541 22.6911 26.0403 22.9728 26.7189 23.2715C27.0419 23.4142 27.3622 23.5598 27.6813 23.7118C27.8378 23.786 27.9926 23.8624 28.148 23.9397C28.158 23.9452 28.1689 23.9508 28.182 23.9573C28.2731 24.0053 28.3642 24.0533 28.4552 24.1021C29.0838 24.4405 29.6975 24.8092 30.2809 25.2222C30.5769 25.4309 30.8666 25.6489 31.1449 25.8804C31.1759 25.9066 31.2069 25.9328 31.2378 25.959C31.2621 25.9783 31.2999 26.0097 31.3179 26.027C31.3179 26.027 31.3179 26.027 31.3187 26.0279C31.3217 26.0305 31.3247 26.0331 31.3277 26.0357C31.3247 26.0331 31.3232 26.0322 31.3202 26.0296C31.4651 26.1654 31.6076 26.3018 31.7457 26.4443C31.9824 26.6881 32.2062 26.9439 32.4156 27.2114C32.5229 27.3486 32.6236 27.4885 32.7249 27.6301C32.7278 27.6343 32.7292 27.6376 32.732 27.6426C32.8003 27.7538 32.8693 27.865 32.9342 27.9792C33.1125 28.291 33.2708 28.6142 33.41 28.9457C33.4451 29.0282 33.4785 29.1114 33.511 29.1953C33.5062 29.1837 33.5659 29.3488 33.5923 29.4187C33.6073 29.4669 33.6258 29.5235 33.6303 29.539C33.6693 29.6682 33.7058 29.798 33.7407 29.9285C33.838 30.2994 33.9158 30.6754 33.9749 31.0541C34.0032 31.233 34.0275 31.4124 34.0469 31.5922C34.0574 31.6826 34.0663 31.7728 34.0744 31.863C34.0795 31.917 34.0885 32.0849 34.0915 32.1115C34.1219 32.9244 34.0916 33.7355 34.0022 34.5448C33.9468 35.0507 33.8699 35.5544 33.7789 36.0554C33.7606 36.1558 33.7408 36.2561 33.7227 36.3556L33.693 36.5056C33.7363 36.2974 33.7157 36.3976 33.6312 36.8054C33.584 37.0447 33.5416 37.285 33.4921 37.524C33.4863 37.55 33.4791 37.584 33.4686 37.6304C33.4415 37.7558 33.4143 37.8812 33.3864 38.0057C33.3305 38.2555 33.2722 38.5059 33.2131 38.7547C33.0893 39.2783 32.9592 39.7998 32.829 40.3221C32.662 40.9939 32.9093 41.7956 33.6405 42.0172C34.3106 42.2201 35.1123 41.9144 35.3356 41.2057C36.4958 37.5236 37.5389 33.686 36.7029 29.8123L36.7052 29.814Z" fill="#F8F9FA"/>
<path d="M27.7325 29.8725C27.7231 29.8694 27.7137 29.8663 27.7043 29.8633C27.7129 29.8663 27.7223 29.8693 27.7325 29.8725Z" fill="#F8F9FA"/>
<path d="M27.7674 29.8968C27.7674 29.8968 27.7621 29.8924 27.759 29.8906C27.759 29.8906 27.759 29.8906 27.7589 29.8922C27.7619 29.8948 27.7643 29.8958 27.7673 29.8984C27.7673 29.8984 27.7673 29.8984 27.7673 29.8976L27.7674 29.8968Z" fill="#F8F9FA"/>
<path d="M30.3386 29.3331C29.947 27.8018 28.6096 27.2065 27.1511 27.0957C24.4156 26.8884 21.6244 26.9397 18.8992 27.2494C17.5615 27.4016 16.2303 27.6118 14.9109 27.8805C13.6281 28.1414 12.0075 28.4946 11.6385 29.9479C11.4631 30.6375 11.473 31.3537 11.4484 32.0603C11.42 32.8451 11.3995 33.6296 11.3863 34.4138C11.373 35.1756 11.3865 35.9329 11.4197 36.694C11.4377 37.101 11.4047 37.5613 11.4832 37.9606C11.525 38.1756 11.5922 38.3932 11.6652 38.6088C11.5097 38.6235 11.3549 38.6391 11.2012 38.6516C10.4855 38.7112 10.389 39.9426 11.1005 40.0916C11.7355 40.2248 12.3736 40.3927 13.0154 40.4856C13.6406 40.5757 14.2743 40.6232 14.9019 40.6911C16.1862 40.8314 17.4723 40.9245 18.7605 41.021C21.3084 41.2111 23.8572 41.387 26.4068 41.5629C27.0559 41.6083 27.7178 41.0815 27.7353 40.408C27.7455 39.9989 27.5697 39.6057 27.2712 39.3543C27.2787 39.3148 27.2863 39.2753 27.2946 39.2367C27.297 39.2256 27.2995 39.213 27.303 39.1973C27.3387 39.0293 27.3769 38.8615 27.4157 38.6945C27.5665 38.0496 27.7401 37.4094 27.9348 36.7772C28.3186 35.5354 28.7862 34.3188 29.336 33.1407C29.3981 33.0074 29.4611 32.8741 29.5256 32.7418C29.5423 32.7077 29.6478 32.4934 29.6442 32.4979C29.8163 32.1546 30.0025 31.8163 30.1412 31.4578C30.3943 30.8024 30.5167 30.0242 30.3394 29.3323L30.3386 29.3331ZM18.9228 38.6777C17.6586 38.6157 16.3962 38.5498 15.1306 38.531C14.4981 38.522 13.8641 38.5008 13.2317 38.503C13.1853 38.503 13.1395 38.5046 13.0931 38.5053C13.2088 38.0868 13.2875 37.6698 13.319 37.2206C13.3627 36.5953 13.4256 35.9707 13.4541 35.3452C13.5105 34.0918 13.5781 32.8391 13.6673 31.5872C13.686 31.3188 13.7119 31.0517 13.7346 30.7844C13.766 30.416 13.7292 30.9985 13.7639 30.64C13.7659 30.6113 13.7674 30.5906 13.7684 30.5754C13.7761 30.5688 13.7875 30.5544 13.8019 30.5314C13.8295 30.5261 13.8606 30.5283 13.9123 30.5207C14.2575 30.4712 14.6056 30.4387 14.9507 30.39C16.1608 30.2185 17.3584 29.9973 18.5759 29.8696C20.8995 29.6263 23.1284 29.5364 25.5374 29.64C26.1135 29.6651 26.6964 29.6843 27.2702 29.7532C27.298 29.7567 27.5023 29.799 27.5098 29.7956C27.5764 29.8162 27.6412 29.8392 27.7077 29.8614C27.5655 29.8123 27.6845 29.8262 27.7358 29.8706C27.7382 29.8708 27.7398 29.8717 27.7421 29.8726C27.7421 29.8726 27.7382 29.8716 27.7358 29.8706C27.7404 29.8741 27.7441 29.8784 27.7478 29.8826C27.7521 29.8901 27.7549 29.8959 27.7598 29.9051C27.7602 29.9003 27.7604 29.8971 27.7599 29.8931C27.7591 29.893 27.7583 29.8922 27.7576 29.8913C27.7576 29.8913 27.7569 29.8897 27.7561 29.8896C27.7577 29.8897 27.7584 29.8914 27.7591 29.8922C27.7555 29.7383 27.761 29.8091 27.7675 29.8984C27.8634 29.97 27.8642 29.97 27.7675 29.8992C27.7717 29.9531 27.7763 30.0127 27.7798 30.0321C27.7276 29.7484 27.7666 30.0945 27.7655 30.156C27.7648 30.1888 27.7656 30.212 27.7668 30.2289C27.7575 30.2475 27.746 30.2755 27.7312 30.3145C27.6812 30.4454 27.64 30.5778 27.5845 30.7076C27.5366 30.8195 27.4842 30.9287 27.4309 31.0378C27.419 31.0602 27.3752 31.1484 27.3697 31.1584C27.1826 31.5223 26.9993 31.888 26.8246 32.2584C26.259 33.4562 25.7778 34.6943 25.3845 35.9585C25.081 36.9338 24.784 37.9526 24.5997 38.9746C22.7077 38.8719 20.8155 38.7716 18.9227 38.6785L18.9228 38.6777Z" fill="#F8F9FA"/>
</g>
<defs>
<clipPath id="clip0_2856_1710">
<rect width="40" height="40" fill="white" transform="translate(2.79026) rotate(4)"/>
</clipPath>
</defs>
</svg>
