<svg width="36" height="36" viewBox="0 0 36 36" fill="none" xmlns="http://www.w3.org/2000/svg">
<path d="M26.125 35.7779C25.7686 35.7779 25.4619 35.6471 25.205 35.3854C24.9481 35.1238 24.8196 34.8147 24.8196 34.4583C24.8196 34.0925 24.9435 33.7835 25.1912 33.5312C25.4387 33.279 25.75 33.1529 26.125 33.1529C28.0833 33.1529 29.7443 32.4711 31.1079 31.1075C32.4712 29.7442 33.1529 28.0833 33.1529 26.125C33.1529 25.7592 33.279 25.4512 33.5312 25.2012C33.7837 24.9512 34.0975 24.8262 34.4725 24.8262C34.8197 24.8262 35.124 24.956 35.3854 25.2154C35.6471 25.4746 35.7779 25.7778 35.7779 26.125C35.7779 28.8103 34.8335 31.0904 32.9446 32.9654C31.0557 34.8404 28.7825 35.7779 26.125 35.7779ZM1.31958 10.9862C0.963194 10.9862 0.654167 10.8578 0.3925 10.6008C0.130833 10.3439 0 10.0371 0 9.68042C0 7.00458 0.942222 4.72222 2.82667 2.83333C4.71083 0.944445 6.98625 0 9.65292 0C10.0188 0 10.3313 0.131944 10.5904 0.395833C10.8496 0.659722 10.9792 0.969862 10.9792 1.32625C10.9792 1.70125 10.8542 2.01153 10.6042 2.25708C10.3542 2.50236 10.0464 2.625 9.68083 2.625C7.7225 2.625 6.05694 3.30903 4.68417 4.67708C3.31139 6.04514 2.625 7.70375 2.625 9.65292C2.625 10.0279 2.49889 10.3439 2.24667 10.6008C1.99444 10.8578 1.68542 10.9862 1.31958 10.9862ZM6.23625 29.4375C3.73625 26.9467 2.47931 23.9582 2.46542 20.4721C2.45153 16.986 3.69 14.0022 6.18083 11.5208L9.13208 8.5625C9.49792 8.19667 9.86139 8.09014 10.2225 8.24292C10.5836 8.3957 10.9122 8.61333 11.2083 8.89583C11.8103 9.49778 12.1158 10.2224 12.125 11.0696C12.1344 11.9168 11.8289 12.6506 11.2083 13.2708L9.35417 15.1112C9.095 15.3704 8.96542 15.6817 8.96542 16.045C8.96542 16.4086 9.095 16.72 9.35417 16.9792L9.82667 17.4863C10.5442 18.2038 10.9029 19.0729 10.9029 20.0938C10.9029 21.1146 10.5442 21.9837 9.82667 22.7012C9.6275 22.9004 9.52792 23.1389 9.52792 23.4167C9.52792 23.6944 9.6275 23.9329 9.82667 24.1321C10.0256 24.331 10.2639 24.4304 10.5417 24.4304C10.8194 24.4304 11.0579 24.331 11.2571 24.1321C12.3682 23.021 12.9249 21.6772 12.9271 20.1008C12.9296 18.5244 12.3775 17.1829 11.2708 16.0763L12.6042 14.7154C13.2108 14.1087 13.6368 13.4212 13.8821 12.6529C14.1274 11.8843 14.1829 11.125 14.0487 10.375L20.5071 3.91667C20.7663 3.66667 21.0788 3.54167 21.4446 3.54167C21.8104 3.54167 22.1229 3.66667 22.3821 3.91667C22.6413 4.17583 22.7708 4.49181 22.7708 4.86458C22.7708 5.23736 22.6413 5.55333 22.3821 5.8125L14 14.2154L16.3683 16.5833L27.1321 5.85417C27.3913 5.595 27.7014 5.46542 28.0625 5.46542C28.4236 5.46542 28.7339 5.595 28.9933 5.85417C29.2525 6.11333 29.3821 6.42236 29.3821 6.78125C29.3821 7.14014 29.2525 7.44458 28.9933 7.69458L18.2642 18.4513L20.625 20.8471L30.2154 11.2638C30.4746 11.0138 30.7871 10.89 31.1529 10.8925C31.5187 10.8947 31.8312 11.0254 32.0904 11.2846C32.3496 11.544 32.4792 11.8519 32.4792 12.2083C32.4792 12.5647 32.3496 12.8726 32.0904 13.1321L22.5071 22.7154L24.8958 25.1321L31.8125 18.2154C32.0719 17.956 32.3844 17.8263 32.75 17.8263C33.1158 17.8263 33.4283 17.956 33.6875 18.2154C33.9469 18.4746 34.0767 18.7824 34.0767 19.1388C34.0767 19.4954 33.9469 19.8033 33.6875 20.0625L24.2083 29.5487C21.7178 32.0301 18.7247 33.2593 15.2292 33.2363C11.7339 33.2129 8.73625 31.9467 6.23625 29.4375Z" fill="#F8F9FA"/>
</svg>
